<?xml version="1.0" encoding="UTF-8"?>
<svg width="99px" height="121px" viewBox="0 0 99 121" version="1.1" xmlns="http://www.w3.org/2000/svg" xmlns:xlink="http://www.w3.org/1999/xlink">
    <title>logo</title>
    <defs>
        <linearGradient x1="100%" y1="50%" x2="1.11022302e-14%" y2="50%" id="linearGradient-1">
            <stop stop-color="#FE0097" offset="0%"></stop>
            <stop stop-color="#FC005E" offset="100%"></stop>
        </linearGradient>
    </defs>
    <g id="Page-1" stroke="none" stroke-width="1" fill="none" fill-rule="evenodd">
        <g id="Group" transform="translate(0.000000, -0.500000)">
            <rect id="Rectangle" fill="#FC005E" transform="translate(56.003790, 62.138256) rotate(-66.000000) translate(-56.003790, -62.138256) " x="18.0037895" y="59.1382565" width="76" height="6" rx="3"></rect>
            <path d="M0,30.0102662 L8.78271966,115.291205 C11.5266526,118.197194 24.4803405,121.196028 38.9055675,121.196028 C53.3307945,121.196028 66.8424551,118.212576 68.8965084,114.360832 L76.5498122,30.0102662 C76.5498122,24.8574083 0,24.8574083 0,30.0102662 Z" id="Path" fill-opacity="0.165219" fill="#FF005F" transform="translate(38.274906, 73.670825) scale(-1, 1) translate(-38.274906, -73.670825) "></path>
            <path d="M2.09660104,30.5646277 C14.65323,28.6974671 26.9410629,27.7638868 38.9600996,27.7638868 C50.9791363,27.7638868 63.0385713,28.6974671 75.1384046,30.5646277 C63.5527906,27.7267285 51.474795,26.3136616 38.9044178,26.3254271 C25.9635719,26.3375393 13.6942997,27.7506062 2.09660104,30.5646277 Z" id="Path" fill-opacity="0.495219" fill="#FFACCB" transform="translate(38.617503, 28.444991) scale(-1, 1) translate(-38.617503, -28.444991) "></path>
            <path d="M6.8305879,62.4776165 L11.574763,112.291205 C14.1169362,115.197194 25.1386808,118.196028 38.5032294,118.196028 C51.8677779,118.196028 60.6958601,115.770809 65.1222759,112.291205 L69.8305879,62.4776165 C69.8305879,55.2470636 55.8091808,53.3989998 50.1612838,56.9442279 C44.5133868,60.4894561 38.3013557,71.5479961 24.8795276,71.5479961 C11.4576995,71.5479961 6.8305879,57.3247586 6.8305879,62.4776165 Z" id="Path" fill-opacity="0.365219" fill="#FC005E" transform="translate(38.330588, 86.696028) scale(-1, 1) translate(-38.330588, -86.696028) "></path>
            <path d="M6.8305879,63.3893047 L11.4576995,112.020506 C13.9998727,114.911513 24.7933978,118.196028 38.1579464,118.196028 C51.522495,118.196028 62.9847225,115.852393 64.8877424,112.020506 L69.7593051,63.3893047 C70.9958955,56.4332985 55.8091808,54.3574919 50.1612838,57.884443 C44.5133868,61.411394 38.3013557,72.4129226 24.8795276,72.4129226 C11.4576995,72.4129226 6.8305879,58.2630119 6.8305879,63.3893047 Z" id="Path" fill="url(#linearGradient-1)"></path>
            <path d="M66.0605429,13.4629735 L100.752563,13.4629735 C102.349219,13.4629735 103.643565,14.7573191 103.643565,16.3539752 C103.643565,17.9506313 102.349219,19.2449769 100.752563,19.2449769 L66.0605429,19.2449769 C64.4638867,19.2449769 63.1695412,17.9506313 63.1695412,16.3539752 C63.1695412,14.7573191 64.4638867,13.4629735 66.0605429,13.4629735 Z" id="Rectangle" fill="#FC005E" transform="translate(83.406553, 16.353975) rotate(-45.000000) translate(-83.406553, -16.353975) "></path>
            <path d="M8.67220751,120.564652 C16.8450988,117.284309 26.9410629,115.644138 38.9600996,115.644138 C50.9791363,115.644138 60.4284957,117.284309 67.3081779,120.564652 C60.942715,116.313571 51.474795,114.193913 38.9044178,114.205678 C25.9635719,114.217791 15.8861685,116.337448 8.67220751,120.564652 Z" id="Path" fill-opacity="0.295219" fill="#2B0010" transform="translate(37.990193, 117.385117) scale(-1, 1) rotate(-180.000000) translate(-37.990193, -117.385117) "></path>
        </g>
    </g>
</svg>